<?xml version="1.0" standalone="no"?>
<!DOCTYPE svg PUBLIC "-//W3C//DTD SVG 20010904//EN"
 "http://www.w3.org/TR/2001/REC-SVG-20010904/DTD/svg10.dtd">
<svg version="1.0" xmlns="http://www.w3.org/2000/svg"
 width="4677.000000pt" height="3307.000000pt" viewBox="0 0 4677.000000 3307.000000"
 preserveAspectRatio="xMidYMid meet">

<g transform="translate(0.000000,3307.000000) scale(0.100000,-0.100000)"
fill="#000000" stroke="none">
<path d="M22930 29249 c-415 -28 -808 -196 -1013 -432 -149 -171 -221 -336
-257 -590 -33 -231 -83 -374 -181 -518 -97 -144 -259 -276 -413 -336 -63 -25
-68 -28 -41 -31 53 -7 342 18 468 39 136 23 312 71 437 120 238 91 533 371
666 632 14 27 47 117 75 200 54 164 93 244 171 349 101 137 285 283 464 368
86 41 278 110 308 110 9 0 16 4 16 9 0 12 -194 58 -300 70 -132 15 -274 19
-400 10z"/>
<path d="M24500 29154 c-332 -52 -567 -171 -751 -381 -108 -123 -167 -237
-224 -433 -82 -283 -214 -479 -408 -612 -83 -57 -196 -108 -294 -133 l-85 -22
81 -12 c347 -51 772 -21 1000 70 216 86 466 279 604 463 32 44 83 132 114 195
72 150 136 242 236 338 195 186 432 294 752 342 l110 17 -90 38 c-110 46 -287
98 -415 121 -133 25 -499 30 -630 9z"/>
<path d="M21125 29065 c-219 -31 -409 -87 -603 -180 -284 -136 -466 -304 -582
-540 -82 -166 -100 -256 -110 -545 -8 -246 -13 -280 -52 -400 -61 -190 -198
-374 -354 -475 -109 -71 -105 -66 -50 -60 141 15 411 91 594 166 242 101 388
204 536 381 188 226 274 418 320 715 31 203 112 375 256 539 122 140 337 292
513 364 53 22 56 25 35 33 -40 16 -393 18 -503 2z"/>
<path d="M26277 28830 c-262 -30 -504 -146 -672 -322 -98 -102 -142 -166 -211
-313 -110 -233 -215 -371 -371 -481 -114 -82 -318 -162 -422 -165 -20 -1 -49
-4 -66 -8 -26 -6 -12 -12 90 -40 199 -56 365 -81 586 -88 222 -7 314 3 449 47
304 99 578 298 726 525 215 332 573 509 1027 510 184 0 183 -3 18 89 -194 109
-416 187 -641 225 -142 25 -392 35 -513 21z"/>
<path d="M19460 28634 c-321 -44 -658 -180 -913 -370 -281 -210 -442 -476
-477 -790 -12 -108 -9 -158 22 -347 26 -164 22 -369 -11 -492 -46 -169 -174
-372 -296 -467 -30 -23 -52 -44 -50 -46 14 -14 328 112 475 190 347 186 518
353 665 648 110 220 134 320 145 595 8 229 22 308 80 445 96 225 281 438 513
591 l91 59 -70 -1 c-38 -1 -116 -7 -174 -15z"/>
<path d="M27975 28239 c-96 -13 -232 -52 -322 -94 -177 -82 -311 -201 -441
-392 -128 -189 -228 -292 -367 -378 -154 -96 -312 -138 -499 -133 -64 2 -116
2 -116 1 0 -7 99 -52 216 -99 313 -125 653 -191 859 -165 182 23 400 93 555
178 105 58 188 124 307 247 222 227 435 328 754 357 129 12 312 1 424 -26 33
-7 61 -12 62 -11 2 2 -32 32 -74 67 -272 227 -599 377 -948 434 -115 20 -320
27 -410 14z"/>
<path d="M17728 27930 c-198 -43 -470 -156 -640 -266 -185 -119 -389 -307
-486 -447 -67 -97 -135 -239 -168 -352 -20 -70 -27 -120 -31 -223 -7 -164 5
-243 63 -425 61 -191 77 -293 71 -442 -9 -209 -72 -379 -202 -542 -36 -46 -62
-83 -59 -83 16 0 222 116 316 178 220 146 433 341 523 480 91 141 166 334 206
525 26 125 28 312 5 437 -18 98 -21 279 -5 366 49 274 224 565 462 765 32 27
52 49 45 48 -7 0 -52 -9 -100 -19z"/>
<path d="M29623 27400 c-214 -27 -390 -100 -543 -225 -36 -29 -110 -102 -165
-161 -160 -173 -313 -273 -502 -331 -79 -24 -104 -26 -243 -27 -98 0 -172 4
-200 12 -25 7 -54 16 -65 19 -56 15 197 -143 352 -220 219 -110 483 -193 648
-204 102 -6 268 9 396 37 204 44 376 125 534 251 186 148 357 216 598 239 195
19 459 -24 667 -107 45 -19 -170 205 -296 306 -233 189 -559 344 -829 394
-107 20 -263 28 -352 17z"/>
<path d="M16000 26941 c-483 -181 -937 -613 -1075 -1025 -40 -119 -55 -215
-55 -347 0 -190 31 -310 130 -509 110 -219 146 -355 144 -545 -1 -179 -48
-341 -139 -479 -25 -38 -44 -70 -42 -72 6 -6 201 146 299 233 179 159 356 374
427 518 80 164 129 370 138 581 7 173 -5 266 -58 431 -47 148 -59 219 -59 344
0 299 125 600 368 882 20 23 11 21 -78 -12z"/>
<path d="M23489 26887 c-148 -42 -229 -150 -216 -290 9 -98 80 -187 180 -224
106 -39 216 22 247 136 l11 43 25 -23 c71 -67 -28 -226 -201 -324 -33 -18 -96
-46 -140 -62 -73 -25 -92 -27 -225 -27 -138 0 -150 1 -239 32 -123 42 -196 82
-299 160 -80 61 -84 62 -78 35 37 -172 46 -391 21 -508 -24 -115 -57 -168
-185 -300 -349 -361 -544 -690 -622 -1050 -20 -93 -17 -381 5 -482 56 -260
184 -508 395 -762 103 -124 325 -339 460 -446 55 -44 101 -83 101 -87 1 -5
-57 -8 -128 -8 -574 0 -1063 -199 -1359 -552 -88 -106 -134 -174 -223 -334
-183 -330 -378 -522 -647 -639 l-73 -32 68 -35 c84 -44 196 -85 286 -104 100
-21 264 -18 367 6 227 55 468 231 666 487 266 344 477 519 781 647 116 49 412
120 429 103 3 -3 -21 -20 -53 -38 -254 -143 -582 -395 -763 -585 -396 -416
-543 -817 -405 -1100 61 -126 180 -234 295 -268 146 -43 326 6 426 117 54 60
67 104 67 227 1 283 -160 433 -430 400 -37 -5 -69 -7 -71 -5 -7 7 53 166 91
239 146 281 427 528 837 736 127 64 340 160 356 160 2 0 4 -56 4 -124 0 -233
-33 -415 -180 -1006 -180 -722 -223 -987 -224 -1400 0 -246 12 -333 69 -501
185 -532 722 -989 1353 -1149 201 -51 489 -66 677 -35 363 59 662 243 875 541
24 34 28 44 14 34 -12 -8 -55 -39 -95 -68 -501 -363 -1254 -330 -1810 79 -179
132 -358 345 -443 531 -83 178 -116 332 -116 533 0 265 53 453 246 868 93 200
195 391 454 847 351 618 421 756 489 960 136 408 115 854 -53 1107 -40 61 -77
99 -171 177 -428 353 -654 702 -720 1111 -16 94 -19 361 -6 450 l7 50 8 -50
c11 -72 53 -219 75 -263 122 -240 378 -341 793 -311 78 5 145 12 149 15 4 2
109 -63 232 -145 124 -82 239 -156 255 -165 44 -23 129 -21 170 4 39 24 71 88
72 141 0 64 -49 131 -274 380 l-219 241 -18 277 c-10 152 -18 290 -19 308 0
30 -2 32 -57 43 -262 54 -482 217 -690 512 l-40 57 -34 -67 c-41 -82 -155
-203 -234 -251 -113 -68 -283 -114 -471 -127 l-96 -7 -43 -66 c-139 -215 -231
-486 -277 -811 -20 -143 -16 -604 6 -808 10 -90 16 -165 14 -167 -2 -2 -30 1
-63 7 -198 32 -354 -50 -497 -262 l-16 -25 -12 30 c-64 164 -116 442 -106 566
13 159 57 252 223 470 185 246 255 379 312 599 44 171 61 303 68 513 3 103 8
187 11 187 2 0 43 -15 91 -34 307 -123 577 -121 787 5 153 92 304 309 335 480
32 182 -64 371 -230 451 -60 29 -76 33 -176 35 -67 2 -128 -2 -156 -10z m-913
-1564 c-8 -16 -45 -73 -82 -128 -214 -316 -258 -387 -310 -488 -32 -62 -77
-166 -100 -232 -35 -98 -43 -113 -43 -83 -3 144 87 385 203 546 45 62 336 410
344 412 1 0 -4 -12 -12 -27z m338 -1719 c70 -24 123 -82 183 -199 64 -126 94
-211 127 -357 30 -133 31 -148 12 -148 -34 0 -196 54 -267 90 -123 61 -196
115 -299 219 -77 78 -220 263 -220 285 0 8 127 77 183 98 108 41 186 44 281
12z m-268 -1130 c42 -8 99 -25 127 -38 l52 -23 -160 -5 c-127 -5 -179 -11
-255 -31 -183 -49 -349 -136 -520 -274 -46 -37 -199 -181 -340 -318 -229 -225
-367 -346 -455 -399 -16 -10 11 24 61 75 50 52 170 184 266 294 198 225 406
434 518 516 251 186 476 251 706 203z"/>
<path d="M31076 26319 c-188 -27 -355 -104 -529 -242 -177 -141 -301 -208
-469 -255 -49 -13 -100 -17 -228 -16 -150 0 -173 3 -253 27 -49 15 -103 34
-120 43 -27 12 -22 6 23 -36 261 -244 620 -460 864 -521 112 -29 422 -37 551
-16 146 24 250 56 353 110 228 118 273 139 368 163 85 23 120 27 254 28 115 0
177 -4 240 -18 132 -28 286 -81 395 -135 54 -28 100 -49 102 -48 5 5 -69 122
-124 194 -230 305 -598 573 -933 678 -157 49 -345 66 -494 44z"/>
<path d="M14413 25688 c-51 -29 -129 -80 -175 -113 -108 -78 -338 -307 -418
-415 -130 -177 -228 -370 -278 -550 -25 -88 -27 -109 -27 -280 1 -159 4 -196
23 -264 32 -116 108 -265 200 -393 93 -132 150 -243 188 -368 25 -82 28 -105
28 -255 1 -182 -12 -250 -74 -388 l-31 -67 87 85 c255 251 489 614 543 840 58
246 52 552 -15 765 -9 28 -45 111 -80 185 -90 191 -116 296 -117 475 -1 255
69 496 211 728 23 37 38 67 34 67 -4 0 -49 -24 -99 -52z"/>
<path d="M32370 25029 c-137 -24 -259 -73 -430 -174 -269 -157 -558 -197 -820
-113 -70 22 -168 69 -212 100 -125 88 234 -303 404 -440 101 -82 256 -185 332
-222 158 -75 362 -114 596 -114 204 0 253 9 452 82 73 27 165 56 203 63 100
20 310 17 415 -5 187 -40 395 -135 552 -251 l87 -64 -14 39 c-24 67 -123 254
-181 340 -244 365 -609 647 -951 736 -110 29 -333 41 -433 23z"/>
<path d="M13055 24226 c-101 -80 -273 -258 -346 -356 -167 -224 -304 -526
-345 -764 -22 -128 -15 -350 15 -466 27 -103 95 -250 155 -334 24 -33 90 -111
148 -171 191 -203 278 -359 319 -572 22 -117 5 -332 -36 -458 -18 -54 141 165
228 316 129 223 229 486 248 654 19 167 -4 400 -58 585 -33 113 -99 248 -171
347 -111 154 -168 289 -198 469 -22 134 -14 329 20 474 24 104 75 259 102 313
8 15 11 27 6 27 -4 0 -44 -29 -87 -64z"/>
<path d="M32153 23585 c32 -64 134 -219 207 -315 138 -182 341 -377 470 -453
147 -87 374 -162 567 -188 124 -16 294 -6 428 25 187 45 398 35 580 -26 171
-57 373 -182 524 -324 91 -86 93 -87 86 -54 -14 72 -85 269 -129 364 -169 361
-464 689 -748 832 -187 94 -350 130 -542 121 -130 -6 -228 -29 -389 -92 -187
-73 -267 -89 -442 -89 -125 -1 -164 3 -233 22 -140 38 -280 112 -371 196 l-33
31 25 -50z"/>
<path d="M11934 22577 c-270 -280 -457 -676 -510 -1080 -30 -232 6 -456 106
-657 73 -146 173 -259 345 -389 299 -226 446 -489 448 -801 0 -58 -3 -125 -7
-150 l-7 -45 45 80 c134 236 243 565 276 830 28 224 -59 584 -198 818 -26 44
-90 126 -146 186 -54 58 -118 134 -142 167 -62 86 -130 235 -161 351 -26 93
-27 110 -27 323 1 207 3 233 26 330 14 58 25 106 24 107 -2 2 -34 -30 -72 -70z"/>
<path d="M25130 22406 c-216 -61 -400 -255 -603 -636 -51 -95 -167 -344 -167
-357 0 -3 34 46 76 108 212 318 446 538 685 643 l57 25 -1 -62 c-2 -80 20
-119 87 -152 63 -32 160 -34 222 -6 79 36 121 177 82 271 -59 138 -262 215
-438 166z"/>
<path d="M33190 22208 c0 -17 80 -198 135 -307 153 -300 345 -540 524 -656
173 -111 390 -198 576 -230 82 -14 132 -16 275 -10 248 10 381 -15 569 -107
192 -95 409 -286 527 -467 37 -57 40 -42 19 102 -80 559 -420 1098 -818 1298
-237 120 -484 148 -742 85 -156 -38 -256 -49 -379 -43 -133 7 -237 32 -351 86
-110 51 -164 89 -257 180 -43 41 -78 72 -78 69z"/>
<path d="M25212 21819 c-144 -13 -266 -59 -396 -149 -80 -55 -218 -190 -292
-285 -80 -103 -229 -338 -297 -470 -10 -20 12 -3 72 55 244 238 493 328 976
350 497 23 608 37 759 94 152 57 278 160 377 309 33 49 58 91 57 92 -2 2 -40
-7 -85 -20 -191 -56 -366 -57 -718 -7 -244 35 -338 42 -453 31z m658 -194
c-84 -48 -204 -71 -445 -85 -213 -13 -351 -33 -452 -66 -73 -24 -192 -79 -248
-116 -16 -11 -4 5 28 36 99 95 211 163 342 207 68 23 81 23 412 24 188 0 345
3 349 8 4 4 14 7 23 7 11 -1 7 -6 -9 -15z"/>
<path d="M11113 20838 c-41 -45 -126 -185 -184 -303 -71 -146 -129 -319 -164
-485 -37 -174 -46 -453 -20 -596 66 -368 259 -622 610 -803 327 -168 531 -463
553 -801 l7 -105 33 88 c86 235 132 478 139 738 6 210 -2 264 -64 443 -97 279
-244 489 -453 646 -105 79 -172 148 -240 245 -100 146 -165 317 -194 518 -17
109 -20 295 -7 385 4 28 7 52 6 52 -1 0 -11 -10 -22 -22z"/>
<path d="M34021 20650 c-1 -27 67 -275 104 -376 44 -121 137 -316 207 -432
120 -201 384 -413 643 -518 114 -46 223 -70 371 -83 202 -18 360 -75 531 -193
154 -106 318 -297 424 -494 33 -60 48 -81 53 -69 10 26 7 236 -5 343 -25 232
-91 461 -190 663 -149 303 -317 489 -550 609 -188 97 -366 129 -606 109 -333
-28 -594 51 -810 245 -46 41 -100 106 -155 186 -11 17 -17 20 -17 10z"/>
<path d="M10513 19055 c-244 -516 -251 -1167 -17 -1566 131 -224 323 -375 604
-474 371 -131 604 -367 681 -690 31 -125 30 -124 40 -90 30 103 52 319 53 525
1 318 -26 464 -124 666 -64 133 -174 288 -279 394 -102 103 -165 150 -299 221
-361 190 -566 560 -604 1089 -3 32 -7 26 -55 -75z"/>
<path d="M34605 18935 c30 -407 161 -824 323 -1026 72 -90 216 -230 303 -294
149 -110 262 -162 459 -211 227 -58 396 -156 548 -318 127 -137 246 -339 308
-525 26 -77 29 -81 36 -55 40 148 59 455 39 634 -27 235 -89 455 -181 645
-121 248 -332 453 -561 544 -108 43 -179 60 -299 72 -186 18 -306 39 -395 69
-246 83 -434 247 -547 475 l-40 80 7 -90z"/>
<path d="M17965 18258 c-6 -27 -365 -1936 -368 -1958 -2 -17 53 -37 363 -136
2657 -848 5604 -1043 8484 -563 661 110 1310 255 1906 425 216 62 750 236 779
253 11 7 -29 197 -208 1001 -121 546 -223 995 -225 997 -2 2 -96 -25 -207 -61
-1092 -349 -2199 -566 -3399 -665 -610 -51 -1037 -65 -1710 -58 -526 6 -691
12 -1140 42 -1369 93 -2869 347 -4046 684 -117 34 -214 61 -218 61 -3 0 -8
-10 -11 -22z m10133 -703 c97 -29 160 -109 169 -215 7 -69 -9 -120 -48 -165
l-30 -33 53 -16 c123 -35 197 -136 198 -267 0 -115 -56 -196 -179 -259 -78
-39 -494 -160 -507 -148 -8 8 -264 1001 -259 1006 6 7 327 92 380 101 80 14
167 12 223 -4z m-9157 -35 c107 -32 199 -100 261 -188 36 -52 39 -49 -83 -120
l-86 -50 -34 46 c-96 130 -274 138 -397 19 -71 -69 -87 -107 -87 -212 0 -75 4
-97 23 -133 71 -134 223 -188 351 -125 l42 21 36 -56 c19 -32 48 -77 64 -102
l28 -45 -44 -23 c-102 -52 -233 -65 -354 -37 -261 62 -436 323 -391 583 25
147 126 298 245 368 128 75 292 96 426 54z m8606 -415 c101 -386 106 -435 55
-538 -75 -152 -263 -249 -482 -250 -107 0 -173 21 -235 75 -76 67 -89 105
-166 479 -38 187 -69 348 -69 358 0 15 19 22 116 41 66 13 118 19 123 14 4 -5
31 -119 60 -254 85 -399 94 -424 154 -460 59 -36 168 -16 223 41 23 24 29 40
32 92 3 52 -8 113 -68 361 -39 164 -68 301 -65 305 9 8 207 60 224 58 10 -2
39 -97 98 -322z m-7677 -67 c47 -161 126 -416 176 -567 50 -152 90 -277 89
-279 -4 -5 -239 40 -255 49 -8 4 -28 51 -45 105 l-30 97 -209 45 -208 45 -73
-79 -72 -79 -119 29 c-65 16 -125 32 -133 36 -9 5 17 38 90 116 212 223 494
537 648 722 24 28 47 52 50 52 3 0 44 -132 91 -292z m6415 140 c3 -13 35 -187
71 -388 36 -201 67 -367 69 -369 2 -2 77 11 166 28 89 17 164 29 167 27 3 -4
-17 -228 -22 -233 -4 -4 -497 -93 -516 -93 -14 0 -21 9 -25 33 -51 304 -155
941 -155 955 0 16 16 22 113 39 61 11 115 21 119 22 4 0 10 -9 13 -21z m-5741
-33 c187 -32 257 -50 321 -82 103 -51 146 -116 153 -234 7 -116 -15 -180 -86
-249 -88 -85 -201 -114 -351 -91 -40 6 -76 9 -79 6 -3 -2 -18 -82 -34 -177
-16 -95 -31 -174 -34 -177 -5 -5 -244 36 -252 43 -3 3 35 226 84 496 80 445
90 490 107 490 11 0 87 -11 171 -25z m5356 -79 c36 -14 78 -37 94 -50 l30 -23
-68 -96 -68 -95 -34 23 c-53 36 -101 48 -164 42 -67 -6 -107 -24 -156 -74
-120 -120 -117 -312 6 -427 62 -58 110 -78 185 -79 71 -1 149 36 195 91 19 23
32 32 42 26 47 -29 178 -127 178 -134 0 -19 -114 -119 -167 -147 -98 -52 -162
-66 -284 -61 -100 4 -112 7 -190 45 -101 49 -154 93 -208 174 -116 174 -115
415 4 593 66 100 174 179 286 211 85 24 237 15 319 -19z m-4537 -41 c115 -14
270 -30 344 -37 l134 -12 -6 -65 c-3 -36 -8 -88 -11 -114 l-6 -48 -86 8 c-48
4 -103 7 -122 8 l-35 0 -40 -385 -40 -385 -35 2 c-19 1 -79 7 -133 13 l-98 12
5 27 c12 65 88 742 84 746 -3 3 -45 10 -94 17 -49 6 -91 12 -93 14 -5 4 -30
179 -31 212 0 21 4 23 28 18 15 -3 121 -17 235 -31z m1005 -300 c66 -144 182
-386 259 -538 l139 -277 -86 0 c-47 0 -108 3 -136 6 l-51 6 -46 94 c-26 52
-51 94 -56 94 -26 0 -322 21 -363 25 l-47 6 -62 -92 -61 -91 -57 6 c-31 3 -91
9 -133 12 -43 4 -78 9 -78 11 0 2 58 89 129 192 116 169 331 498 471 723 30
48 55 86 56 85 1 -1 56 -119 122 -262z m2262 217 c30 -12 68 -32 84 -45 l28
-23 -47 -79 c-27 -44 -51 -84 -55 -88 -4 -4 -33 6 -64 23 -68 35 -117 38 -163
10 -42 -25 -52 -63 -26 -98 15 -21 48 -36 146 -68 198 -65 255 -120 277 -261
32 -208 -80 -352 -301 -385 -112 -17 -273 18 -342 74 l-27 23 65 98 66 98 30
-25 c83 -70 234 -54 263 28 17 46 -16 76 -125 114 -160 55 -175 61 -218 98
-67 58 -85 102 -86 214 0 81 4 102 24 140 43 83 105 133 206 167 58 19 197 11
265 -15z m-1355 -137 c145 -124 295 -247 429 -350 l89 -69 -8 267 -7 267 126
0 126 0 0 -39 c0 -21 9 -247 20 -501 11 -255 19 -464 17 -466 -7 -7 -419 314
-609 474 l-88 73 0 -280 0 -281 -130 0 -130 0 0 258 c0 411 11 772 24 765 6
-4 70 -57 141 -118z m-284 105 l89 0 0 -182 c0 -101 -3 -329 -7 -507 l-6 -323
-123 4 c-68 2 -126 7 -130 11 -7 7 14 971 22 996 3 9 14 12 35 7 18 -3 71 -6
120 -6z"/>
<path d="M27832 17339 c-21 -6 -32 -15 -29 -23 3 -7 15 -51 28 -97 12 -46 23
-86 25 -87 1 -2 27 3 56 12 86 25 120 76 95 146 -7 19 -23 40 -37 47 -29 15
-90 15 -138 2z"/>
<path d="M27970 16943 c-30 -8 -56 -15 -57 -16 -3 -3 53 -196 58 -202 13 -12
136 36 161 62 42 44 41 101 -1 144 -34 34 -72 37 -161 12z"/>
<path d="M19608 16782 c-36 -42 -65 -78 -64 -79 3 -4 189 -44 191 -41 1 2 -12
47 -29 100 l-31 97 -67 -77z"/>
<path d="M20567 16903 c-12 -40 -30 -183 -24 -189 4 -4 40 -9 80 -12 71 -4 75
-3 108 26 28 25 34 37 34 70 0 65 -46 102 -147 117 -40 6 -47 4 -51 -12z"/>
<path d="M22162 16421 c-29 -45 -52 -85 -52 -90 0 -7 180 -24 187 -17 2 2 -16
45 -40 96 l-44 92 -51 -81z"/>
<path d="M17510 17630 c-590 -114 -1089 -319 -1345 -553 l-60 -55 85 -83 c91
-90 221 -185 445 -325 77 -48 141 -88 143 -89 1 -1 -10 -28 -24 -61 -74 -165
-164 -446 -224 -699 -25 -103 -90 -408 -90 -421 0 -1 44 25 98 59 124 79 466
251 602 304 327 127 613 193 908 210 l134 8 -392 115 c-215 63 -397 118 -403
122 -7 4 38 247 140 752 94 467 146 746 139 745 -6 0 -76 -13 -156 -29z"/>
<path d="M29065 17618 c44 -188 325 -1448 325 -1460 0 -11 -15 -21 -47 -31
-27 -7 -207 -60 -402 -118 l-354 -104 138 -7 c474 -26 976 -194 1484 -499 63
-38 116 -67 118 -65 6 5 -66 340 -108 505 -47 185 -146 484 -195 589 -19 42
-33 76 -32 77 2 1 66 41 143 89 224 140 354 235 445 325 l85 83 -50 46 c-60
54 -207 152 -325 215 -258 139 -623 261 -1005 336 -241 47 -227 46 -220 19z"/>
<path d="M10236 17443 c-60 -186 -88 -372 -89 -588 -1 -510 165 -931 460
-1166 146 -116 279 -173 513 -219 235 -47 361 -99 507 -209 131 -99 241 -246
299 -399 l31 -84 7 79 c8 93 -8 360 -30 493 -63 381 -167 593 -411 837 -146
145 -289 236 -465 297 -118 40 -164 62 -252 120 -171 111 -306 267 -406 471
-57 117 -113 277 -126 363 -9 59 -20 60 -38 5z"/>
<path d="M34926 17265 c-3 -8 -8 -86 -12 -173 -13 -315 42 -675 132 -870 55
-121 159 -267 272 -384 153 -158 262 -234 435 -302 269 -105 458 -281 594
-551 56 -111 117 -295 135 -403 7 -45 16 -82 19 -82 9 0 44 91 69 184 104 373
99 785 -15 1131 -40 123 -69 183 -143 294 -109 165 -292 315 -467 382 -43 17
-148 48 -232 69 -274 69 -454 174 -594 347 -75 94 -121 177 -157 286 -18 52
-32 81 -36 72z"/>
<path d="M10177 15768 c-49 -210 -62 -516 -31 -727 41 -285 144 -560 274 -732
75 -100 215 -227 313 -285 125 -75 266 -118 467 -144 284 -36 467 -114 632
-269 90 -84 183 -218 219 -313 31 -82 34 -62 19 124 -24 316 -110 655 -212
838 -81 145 -296 371 -450 473 -110 74 -209 119 -338 155 -143 40 -234 80
-333 145 -214 143 -397 394 -496 683 -17 50 -31 99 -31 108 0 40 -18 10 -33
-56z"/>
<path d="M34972 15445 c-77 -339 -90 -725 -32 -951 40 -155 142 -355 261 -511
112 -148 177 -202 420 -353 143 -89 293 -266 373 -441 76 -165 115 -331 123
-522 7 -162 7 -162 81 -12 94 190 154 380 188 600 22 142 22 413 1 550 -37
238 -137 449 -287 609 -119 126 -215 188 -429 276 -69 28 -155 69 -192 90
-260 152 -433 403 -473 684 l-12 80 -22 -99z"/>
<path d="M12931 14802 c-9 -17 -73 -332 -85 -422 -5 -32 -2 -51 8 -65 21 -28
44 -11 68 50 46 118 103 166 218 184 36 6 175 13 310 16 135 3 273 8 308 11
l62 5 0 -974 c0 -1163 -5 -1269 -68 -1337 -28 -31 -93 -50 -172 -50 -42 0 -64
-18 -50 -40 8 -13 86 -15 545 -16 424 -1 539 1 552 12 34 24 -2 38 -127 50
-178 17 -208 43 -231 199 -14 96 -26 2133 -12 2144 16 15 543 -6 618 -23 138
-33 208 -91 220 -184 11 -86 14 -92 40 -92 20 0 25 6 29 33 10 68 16 462 7
476 -8 13 -20 13 -83 1 -57 -11 -257 -14 -913 -17 -891 -4 -1063 1 -1158 37
-64 25 -74 25 -86 2z"/>
<path d="M26558 14803 c-28 -32 -52 -90 -503 -1203 -246 -608 -463 -1136 -482
-1173 -69 -139 -143 -190 -293 -203 -88 -7 -105 -16 -90 -45 9 -15 47 -16 447
-15 l438 1 0 25 c0 24 -3 25 -83 31 -97 7 -132 27 -146 81 -14 57 13 151 134
456 l111 282 404 0 c375 0 405 -1 414 -18 5 -9 72 -180 150 -380 154 -397 155
-403 89 -420 -37 -9 -48 -35 -21 -47 10 -5 205 -10 433 -12 432 -5 475 -2 468
35 -3 14 -18 18 -83 24 -135 12 -162 23 -236 98 -104 105 -97 89 -661 1480
-375 924 -385 949 -414 988 -28 36 -53 41 -76 15z m113 -1133 c88 -239 157
-440 154 -447 -3 -10 -77 -13 -329 -13 -179 0 -327 3 -329 8 -8 11 326 893
336 889 5 -1 81 -198 168 -437z"/>
<path d="M30030 14814 c-433 -39 -710 -153 -953 -392 -310 -307 -439 -773
-342 -1244 117 -567 562 -950 1216 -1043 345 -49 855 -15 1016 69 17 8 37 30
46 48 31 65 91 418 85 499 -2 36 -7 45 -25 47 -24 4 -37 -14 -48 -68 -15 -74
-75 -180 -139 -245 -111 -114 -241 -158 -497 -171 -255 -13 -461 42 -676 182
-91 59 -280 256 -336 350 -155 261 -214 560 -176 902 31 291 117 489 284 658
80 80 104 98 195 143 68 33 138 58 197 71 353 77 799 -8 975 -185 69 -69 117
-163 130 -253 18 -127 21 -137 45 -140 17 -2 25 3 32 20 4 13 11 125 15 250 3
124 11 261 16 304 11 89 6 101 -49 109 -20 3 -97 17 -171 30 -74 14 -191 32
-260 40 -122 15 -491 27 -580 19z"/>
<path d="M17730 14781 c-49 -14 -140 -16 -800 -17 -410 0 -751 -1 -758 -2 -8
-1 -12 -11 -10 -24 3 -21 10 -24 93 -30 157 -13 214 -50 235 -152 8 -38 10
-351 7 -1092 -3 -1103 -3 -1090 -50 -1181 -20 -37 -53 -50 -157 -61 -67 -6
-75 -9 -78 -29 -2 -13 2 -24 10 -25 7 -1 175 -2 373 -3 198 0 543 -4 767 -9
457 -10 456 -10 482 54 20 51 47 252 49 370 2 95 2 95 -23 95 -22 0 -26 -7
-45 -82 -29 -113 -67 -171 -135 -205 -82 -42 -151 -50 -375 -46 -199 3 -200 3
-260 33 -51 25 -64 38 -85 80 l-25 50 0 480 0 480 93 3 c146 4 463 -14 497
-29 47 -20 95 -70 104 -109 5 -19 12 -63 16 -97 6 -58 9 -63 31 -63 30 0 30 2
44 222 6 97 15 205 20 240 15 98 13 108 -13 108 -13 0 -37 -15 -56 -34 -53
-54 -94 -60 -436 -61 l-300 0 -3 467 c-2 438 -1 467 15 472 10 3 135 2 278 -3
406 -14 446 -35 470 -243 7 -52 10 -58 31 -58 12 0 26 5 29 10 3 6 13 92 20
193 8 100 19 206 24 234 11 56 7 84 -13 82 -6 -1 -36 -9 -66 -18z"/>
<path d="M33755 14781 c-44 -14 -135 -16 -802 -16 -782 0 -796 -1 -763 -40 8
-9 29 -15 58 -15 74 0 170 -20 205 -44 17 -12 41 -39 52 -61 20 -39 20 -63 23
-1010 4 -1146 -1 -1250 -64 -1324 -27 -32 -49 -39 -152 -49 -59 -6 -67 -10
-70 -29 -2 -13 0 -23 5 -24 16 -2 1027 -12 1299 -13 316 -1 313 -2 334 73 17
61 40 251 43 351 l2 95 -25 0 c-18 0 -27 -7 -32 -25 -4 -14 -17 -58 -28 -98
-27 -93 -77 -151 -158 -184 -54 -22 -71 -23 -297 -23 l-240 0 -60 30 c-47 24
-65 40 -85 75 l-25 45 0 485 0 485 255 -3 c272 -3 331 -11 385 -54 36 -28 64
-92 65 -148 0 -69 9 -90 35 -90 30 0 32 8 40 170 4 74 13 189 21 255 7 66 14
126 14 133 0 23 -43 12 -81 -22 -60 -55 -90 -59 -429 -60 l-305 -1 -3 464 c-1
256 1 468 6 473 5 5 127 4 273 -1 276 -10 354 -22 409 -61 33 -24 61 -79 67
-134 11 -104 12 -107 41 -104 31 3 31 4 52 263 7 77 14 166 17 198 6 66 4 66
-82 38z"/>
<path d="M19039 14759 c-6 -3 -9 -15 -7 -25 3 -16 16 -20 88 -26 163 -13 217
-45 242 -141 19 -76 19 -1988 0 -2127 -25 -176 -51 -204 -198 -217 -77 -6
-100 -21 -75 -46 17 -17 1024 -19 1048 -2 37 27 8 41 -109 52 -137 13 -172 28
-199 87 -27 62 -37 181 -44 559 -6 262 -5 340 5 352 14 17 163 20 298 6 86 -8
59 19 254 -256 419 -592 553 -734 752 -793 38 -11 121 -16 329 -19 153 -3 289
-2 303 1 19 5 24 12 22 28 -3 19 -13 23 -89 34 -259 38 -374 141 -927 832
l-252 316 47 40 c87 71 214 210 270 294 102 153 139 283 130 464 -6 137 -29
209 -99 314 -72 108 -167 177 -308 224 -154 52 -172 53 -843 55 -345 0 -632
-2 -638 -6z m1056 -164 c208 -44 357 -197 411 -420 25 -105 23 -316 -5 -420
-31 -119 -75 -197 -147 -264 -85 -80 -107 -86 -294 -85 -178 2 -248 16 -267
55 -19 35 -14 1102 5 1121 27 27 193 35 297 13z"/>
<path d="M22339 14759 c-6 -3 -9 -15 -7 -25 3 -16 16 -20 93 -26 157 -13 214
-50 235 -152 8 -38 10 -352 7 -1092 -3 -936 -5 -1045 -20 -1102 -30 -111 -49
-126 -187 -140 -67 -6 -75 -9 -78 -29 -2 -13 0 -24 5 -24 24 -5 1021 -7 1036
-2 12 3 17 12 15 26 -3 20 -12 23 -116 34 -129 13 -168 30 -195 84 -29 61 -39
190 -40 564 l-2 360 179 -2 c171 -2 180 -3 203 -25 14 -13 106 -138 205 -278
304 -429 437 -587 560 -671 124 -84 204 -99 546 -99 209 0 252 2 262 15 23 28
4 42 -64 49 -265 27 -388 135 -957 848 l-241 301 69 60 c259 231 368 424 380
672 6 129 -8 200 -63 313 -88 181 -247 284 -513 334 -63 12 -1294 19 -1312 7z
m1054 -164 c207 -44 366 -209 412 -430 19 -92 19 -286 -1 -383 -31 -157 -121
-295 -229 -350 -43 -22 -66 -26 -165 -30 -146 -5 -286 16 -312 49 -17 20 -18
62 -18 569 0 488 2 549 16 561 35 29 192 37 297 14z"/>
<path d="M10413 13824 c-15 -37 -8 -403 11 -509 68 -397 224 -734 441 -950
145 -145 293 -232 484 -283 89 -23 114 -25 331 -27 229 -2 307 -10 420 -42 78
-22 190 -75 270 -128 84 -56 212 -190 263 -276 38 -64 38 -64 32 -24 -43 258
-135 534 -252 755 -73 140 -125 210 -219 300 -212 202 -469 341 -696 376 -57
9 -146 24 -199 34 -335 62 -640 318 -831 699 -38 75 -49 90 -55 75z"/>
<path d="M34759 13700 c-117 -305 -172 -569 -173 -835 -1 -123 3 -154 28 -250
83 -322 223 -556 443 -741 161 -136 230 -222 309 -388 48 -101 87 -236 105
-365 11 -81 7 -377 -6 -446 l-6 -30 31 35 c134 149 288 459 356 715 61 231 80
490 50 673 -56 337 -229 591 -516 759 -186 110 -298 200 -385 314 -126 162
-183 317 -193 524 l-7 130 -36 -95z"/>
<path d="M34297 12033 c-67 -113 -85 -149 -136 -262 -100 -222 -176 -488 -188
-656 -6 -97 17 -283 52 -420 55 -212 144 -382 277 -531 89 -100 137 -168 185
-264 122 -240 145 -563 62 -890 -16 -63 -29 -117 -29 -120 0 -11 157 151 212
220 262 321 428 753 428 1108 0 191 -33 340 -110 492 -73 144 -153 240 -305
365 -267 220 -391 426 -424 705 -11 90 -3 247 15 294 13 34 -6 13 -39 -41z"/>
<path d="M10800 11985 c0 -82 27 -251 61 -383 117 -455 406 -868 730 -1046
222 -122 456 -154 730 -100 172 34 372 38 494 10 198 -45 389 -158 506 -298
27 -33 49 -57 49 -54 0 2 -16 51 -36 108 -98 284 -318 648 -484 801 -145 134
-389 264 -610 324 -84 23 -123 26 -335 33 -200 6 -253 11 -320 30 -285 78
-564 291 -744 569 l-41 64 0 -58z"/>
<path d="M20364 11230 c-60 -12 -137 -54 -169 -92 -42 -49 -58 -96 -58 -168
-1 -116 54 -192 247 -338 182 -138 215 -180 216 -270 1 -144 -148 -227 -318
-177 -88 26 -142 89 -142 166 0 20 -4 29 -12 27 -9 -3 -14 -37 -16 -112 l-3
-107 37 -15 c65 -27 193 -39 285 -26 186 27 283 126 284 292 0 62 -5 85 -28
132 -33 68 -117 148 -244 236 -162 110 -212 176 -200 265 12 90 77 132 207
132 72 0 92 -4 130 -25 37 -21 48 -34 61 -73 9 -26 20 -48 25 -48 5 1 10 43
12 94 l3 93 -89 12 c-100 13 -167 14 -228 2z"/>
<path d="M20951 11222 c-5 -9 -16 -50 -25 -91 -20 -88 -9 -115 22 -54 30 58
55 66 231 71 l153 4 -4 -463 c-4 -521 -4 -516 -70 -532 -76 -18 -33 -25 152
-26 173 0 218 6 174 23 -9 3 -28 6 -43 6 -44 0 -63 22 -72 81 -4 30 -8 247 -8
483 l-1 429 138 -5 c168 -5 211 -21 226 -80 5 -21 13 -38 17 -38 9 0 23 135
17 170 -3 23 -6 25 -48 20 -99 -11 -785 -5 -817 7 -28 10 -34 10 -42 -5z"/>
<path d="M22343 11228 c-6 -7 -92 -224 -193 -483 -100 -258 -191 -486 -201
-507 -24 -47 -64 -78 -103 -78 -34 0 -64 -14 -49 -23 12 -7 315 -7 327 1 6 3
-8 11 -30 17 l-39 11 2 50 c1 31 20 97 51 179 l49 130 183 0 184 0 70 -174
c56 -140 67 -177 58 -191 -9 -15 -7 -19 11 -24 35 -9 287 -7 287 3 0 11 -25
21 -55 21 -31 0 -91 52 -115 100 -11 21 -103 244 -206 496 -182 446 -198 484
-214 484 -4 0 -12 -6 -17 -12z m75 -426 c40 -106 72 -197 72 -202 0 -6 -59
-10 -150 -10 -122 0 -150 3 -150 14 0 11 87 264 135 395 9 24 19 3 93 -197z"/>
<path d="M25771 11222 c-6 -10 -95 -238 -200 -507 -136 -349 -198 -496 -217
-516 -75 -78 -163 -5 -474 388 l-33 42 59 64 c68 73 101 134 114 209 23 143
-58 263 -203 299 -64 16 -539 19 -547 4 -3 -6 15 -13 39 -16 25 -3 49 -13 57
-23 7 -10 16 -51 19 -91 10 -101 0 -833 -12 -869 -10 -32 -23 -42 -66 -51 -15
-3 -25 -10 -22 -14 5 -10 353 -13 368 -4 15 9 -15 23 -49 23 -18 0 -42 9 -55
19 -24 19 -24 23 -27 215 l-3 196 104 0 105 0 57 -77 c123 -166 238 -302 278
-331 23 -16 61 -35 83 -41 41 -11 391 -14 408 -3 6 3 -8 11 -30 17 -38 11 -39
12 -37 56 1 25 23 103 51 179 l50 135 184 0 183 0 70 -173 c57 -143 67 -176
58 -191 -10 -16 -9 -20 10 -25 36 -9 285 -7 292 3 3 5 -19 15 -48 21 -96 19
-96 20 -313 552 -221 542 -214 528 -230 528 -7 0 -18 -8 -23 -18z m-1007 -90
c27 -15 60 -43 73 -63 95 -144 54 -378 -74 -420 -37 -12 -189 -8 -226 6 -16 7
-17 26 -15 254 l3 246 40 6 c66 11 146 -1 199 -29z m1085 -326 c39 -104 71
-195 71 -202 0 -11 -31 -14 -150 -14 -83 0 -150 4 -150 9 0 7 86 258 132 384
6 16 14 25 18 20 5 -4 40 -93 79 -197z"/>
<path d="M26560 11221 c-6 -13 -10 -189 -10 -510 0 -290 -4 -500 -10 -515 -6
-16 -20 -28 -37 -32 -108 -24 -80 -32 112 -32 160 -1 202 5 159 22 -9 3 -27 6
-40 6 -38 0 -61 16 -73 52 -10 28 -30 497 -31 725 l0 62 162 -172 c215 -228
656 -670 691 -692 15 -10 31 -14 35 -11 4 4 9 239 12 523 5 495 6 515 24 529
11 8 32 14 48 14 17 0 28 5 28 13 0 11 -34 14 -165 14 -126 1 -165 -2 -165
-12 0 -8 19 -14 52 -17 33 -4 56 -12 64 -23 17 -23 22 -109 30 -495 l6 -335
-109 115 c-92 98 -286 301 -658 688 -96 100 -110 110 -125 83z"/>
<path d="M27805 11231 c-9 -16 -35 -136 -35 -165 0 -33 13 -27 34 15 6 12 24
32 39 43 25 19 45 21 183 25 l155 3 -3 -469 c-3 -525 -2 -514 -73 -527 -19 -4
-33 -11 -30 -16 7 -11 373 -12 380 0 6 10 -18 17 -69 22 -18 2 -37 14 -50 31
-20 28 -21 40 -25 494 l-3 466 143 -5 c181 -6 229 -27 229 -98 0 -13 5 -20 13
-17 8 2 12 31 12 98 l0 94 -45 -5 c-101 -11 -785 -5 -817 7 -18 6 -35 8 -38 4z"/>
<path d="M19780 11218 c-26 -5 -160 -7 -313 -5 -199 4 -267 2 -264 -7 2 -6 20
-12 40 -14 25 -2 43 -11 57 -29 19 -25 20 -39 20 -459 0 -480 -4 -530 -48
-540 -108 -23 -57 -30 258 -32 289 -2 310 -1 319 16 12 22 32 163 25 174 -9
15 -22 -1 -28 -36 -8 -42 -53 -83 -100 -92 -19 -3 -80 -4 -136 -2 -97 3 -103
4 -126 31 -24 29 -24 29 -22 240 l3 212 59 3 c72 4 215 -13 228 -26 6 -6 13
-25 17 -43 11 -53 31 -48 32 8 0 26 4 71 8 98 11 63 6 71 -26 45 -23 -18 -40
-20 -174 -20 l-149 0 0 211 0 210 108 -6 c199 -11 217 -17 224 -79 6 -53 25
-40 32 21 4 32 9 75 12 96 3 20 2 37 -3 36 -4 -1 -28 -6 -53 -11z"/>
<path d="M18066 11213 c-12 -12 7 -23 38 -23 19 0 44 -9 57 -19 l24 -19 3
-390 c3 -383 -5 -560 -28 -587 -6 -8 -23 -15 -37 -17 -15 -2 -28 -8 -30 -15
-3 -8 46 -11 181 -12 169 0 214 6 170 23 -9 3 -28 6 -44 6 -15 0 -38 9 -51 19
-24 19 -24 23 -27 215 l-3 196 104 0 103 0 123 -160 c212 -276 232 -291 414
-298 75 -3 117 -1 117 6 0 12 -24 22 -54 22 -42 0 -125 51 -183 114 -52 55
-170 197 -263 313 l-33 42 60 64 c68 73 99 129 113 209 26 139 -54 258 -200
299 -45 12 -543 23 -554 12z m492 -76 c172 -80 175 -432 5 -488 -43 -14 -189
-7 -222 10 -21 12 -21 14 -19 254 l3 242 40 6 c60 10 144 0 193 -24z"/>
<path d="M22953 11206 c2 -6 23 -14 47 -17 54 -7 70 -28 71 -93 12 -617 15
-680 37 -735 67 -169 192 -245 402 -245 127 -1 192 17 278 74 69 46 114 109
145 203 19 56 21 94 26 408 6 319 7 349 25 367 10 12 32 22 50 24 17 2 30 8
29 13 -2 6 -65 10 -163 10 -98 0 -161 -4 -162 -10 -2 -5 16 -13 40 -16 80 -10
77 3 77 -377 0 -351 -5 -401 -46 -483 -26 -53 -76 -99 -139 -128 -46 -22 -69
-26 -140 -26 -72 1 -93 5 -136 28 -64 33 -127 103 -148 165 -29 83 -38 222
-35 500 4 301 8 318 71 324 18 2 32 8 31 13 -2 6 -72 10 -183 11 -130 1 -180
-2 -177 -10z"/>
<path d="M33559 10414 c-103 -126 -227 -320 -300 -469 -129 -264 -159 -380
-159 -624 0 -299 65 -539 199 -735 96 -141 151 -275 176 -431 40 -243 -5 -531
-121 -784 -19 -41 -34 -76 -34 -78 0 -17 175 123 273 217 195 187 301 330 412
553 125 251 171 441 162 667 -7 164 -31 269 -91 396 -55 116 -103 186 -205
299 -204 225 -295 423 -308 670 -6 121 12 255 46 345 10 27 18 50 16 50 -2 0
-32 -34 -66 -76z"/>
<path d="M11540 10167 c0 -28 42 -180 75 -277 98 -281 261 -539 476 -751 119
-118 204 -180 334 -244 164 -81 260 -106 431 -112 174 -7 234 3 424 67 234 78
373 99 536 80 181 -21 375 -105 504 -218 56 -49 55 -42 -8 73 -116 210 -267
409 -434 572 -116 112 -177 155 -312 219 -284 134 -575 178 -839 125 -386 -76
-756 52 -1084 376 -57 56 -103 96 -103 90z"/>
<path d="M23237 9105 c-116 -32 -234 -120 -291 -218 -94 -161 -92 -365 5 -519
31 -47 103 -121 152 -152 25 -17 27 -23 27 -94 l0 -75 -188 6 c-184 5 -190 5
-248 -19 -88 -37 -138 -52 -253 -74 -58 -11 -111 -26 -119 -33 -58 -48 -55
-273 4 -338 14 -16 31 -19 110 -19 122 0 185 -14 237 -54 72 -55 69 -54 259
-48 l178 5 0 -225 c0 -123 -3 -228 -7 -232 -7 -7 -63 99 -63 121 0 6 -10 13
-22 15 -24 3 -25 6 -54 122 -22 87 -59 135 -92 117 -41 -22 -28 -84 40 -189
34 -52 38 -65 28 -77 -9 -11 -10 -22 -3 -38 27 -60 43 -122 33 -125 -7 -3 -45
-26 -85 -53 -87 -58 -196 -172 -246 -257 l-35 -60 -50 20 c-27 11 -56 23 -64
27 -8 4 -26 3 -40 -2 -21 -8 -35 -3 -89 32 -111 72 -172 78 -179 18 -4 -33 36
-60 112 -77 116 -27 125 -30 128 -51 2 -15 22 -29 68 -49 39 -16 64 -33 63
-41 -1 -8 -9 -48 -18 -89 -20 -90 -16 -293 8 -378 15 -53 15 -53 -9 -62 -79
-30 -114 -52 -114 -70 0 -20 -4 -22 -96 -40 -84 -17 -138 -48 -142 -82 -2 -19
3 -30 18 -38 28 -15 77 3 169 59 52 32 67 37 81 28 17 -10 42 -4 140 36 11 5
25 -11 50 -55 50 -87 158 -199 255 -263 l83 -56 -26 -65 c-21 -52 -24 -69 -14
-84 9 -15 4 -30 -33 -87 -24 -37 -49 -88 -56 -112 -12 -41 -12 -45 10 -62 45
-36 87 21 114 153 10 49 18 65 37 75 21 10 68 91 69 121 1 6 6 12 12 12 18 0
5 -243 -17 -305 -42 -123 -141 -218 -255 -245 -118 -29 -283 2 -440 80 -190
96 -399 277 -399 346 0 22 1 23 108 17 112 -6 197 8 189 30 -2 7 -38 30 -81
52 -42 22 -103 61 -135 87 -114 91 -253 308 -301 467 -22 75 -40 100 -58 79
-18 -24 -61 -156 -78 -245 -24 -118 -24 -355 0 -478 25 -132 63 -251 91 -282
22 -26 25 -27 41 -11 9 9 29 45 43 80 15 35 32 63 39 63 7 0 23 -25 36 -55 82
-201 365 -481 663 -656 53 -31 151 -81 217 -109 215 -93 350 -186 523 -360
l111 -113 65 72 c131 146 314 283 484 362 230 108 286 137 384 202 263 173
496 415 575 597 16 36 31 65 35 65 11 0 25 -23 48 -82 13 -32 29 -63 37 -69
21 -17 49 12 72 75 30 80 11 233 -44 357 l-25 56 20 59 c25 75 45 249 38 328
-8 88 9 39 34 -98 34 -190 36 -386 5 -596 -3 -19 3 -1 14 40 59 227 49 499
-26 714 -41 120 -59 120 -94 3 -49 -164 -189 -379 -307 -472 -32 -25 -91 -62
-131 -82 -121 -59 -77 -89 116 -79 101 5 102 5 102 -18 0 -73 -206 -250 -405
-349 -134 -66 -197 -82 -325 -82 -107 0 -119 2 -173 29 -106 54 -190 171 -202
282 -3 27 -8 64 -10 82 -3 26 0 32 14 32 26 0 38 -18 46 -70 10 -63 42 -144
64 -165 25 -22 59 -12 67 20 6 26 -29 113 -68 168 -15 22 -23 47 -24 83 -1 28
-11 71 -22 96 l-20 46 74 47 c96 60 192 155 251 247 25 40 48 75 50 77 5 6
104 -29 121 -42 9 -7 17 -6 24 1 18 18 36 14 84 -19 98 -67 174 -86 194 -49
24 45 -23 80 -147 108 -64 15 -80 22 -90 42 -8 17 -32 33 -72 49 -34 13 -61
28 -61 32 0 4 8 38 17 76 11 44 16 110 16 188 0 78 -5 144 -16 188 -9 38 -17
70 -17 72 0 6 105 55 118 55 11 0 16 13 13 32 -1 12 30 25 76 32 66 10 152 45
164 67 5 11 7 28 4 38 -14 45 -84 30 -189 -38 -54 -35 -67 -40 -83 -31 -14 9
-32 7 -84 -13 l-67 -25 -45 71 c-71 112 -183 217 -312 293 -18 10 -18 12 0 65
11 30 23 60 29 67 6 8 5 17 -2 24 -18 18 -15 36 12 71 43 57 77 137 74 170 -3
28 -7 32 -35 35 -29 3 -34 -1 -53 -37 -11 -23 -28 -76 -38 -119 -15 -65 -21
-77 -40 -80 -12 -2 -22 -10 -22 -17 0 -8 -4 -17 -10 -20 -7 -4 -10 57 -10 176
l0 182 180 -6 180 -5 58 39 c77 53 136 69 252 69 123 0 139 14 160 144 21 133
-22 236 -99 236 -47 0 -253 56 -302 81 -43 23 -50 24 -246 20 l-203 -3 0 87 0
86 60 56 c75 69 135 184 149 286 34 248 -119 478 -362 543 -64 17 -186 17
-250 -1z m218 -46 c55 -26 145 -109 145 -134 0 -19 3 -20 -75 17 -164 76 -352
32 -446 -107 -54 -78 -68 -209 -34 -308 9 -27 15 -51 12 -53 -9 -9 -88 59
-114 98 -38 57 -44 159 -14 238 42 108 149 217 256 260 70 28 199 23 270 -11z
m30 -214 c51 -29 98 -87 116 -142 14 -44 7 -140 -15 -179 -32 -60 -29 -59 -90
-29 -48 24 -65 27 -125 23 -56 -3 -78 -9 -121 -36 -61 -38 -66 -36 -105 41
-64 130 2 291 141 343 57 21 144 12 199 -21z m-22 -357 c48 -14 97 -61 97 -92
0 -13 -12 -35 -26 -50 -35 -34 -90 -35 -183 0 -46 17 -80 24 -97 20 -40 -10
-72 -52 -80 -104 l-8 -47 -7 35 c-12 54 13 128 58 172 71 69 157 93 246 66z
m572 -525 c45 -17 132 -42 194 -56 62 -14 116 -28 119 -31 11 -12 -33 -47 -97
-79 l-66 -32 -780 -3 c-811 -3 -846 -2 -926 39 -41 20 -99 67 -99 79 0 4 30
11 68 14 86 9 250 49 327 80 l60 24 560 -2 560 -2 80 -31z m-635 -739 c0 -136
-3 -175 -12 -172 -7 3 -15 22 -16 44 -6 64 9 304 19 304 5 0 9 -79 9 -176z
m135 -369 c33 -8 94 -32 135 -52 94 -45 220 -167 268 -260 64 -122 87 -285 58
-408 -11 -46 -12 -41 -8 65 5 135 -10 208 -66 315 -49 95 -163 209 -257 257
-123 63 -166 73 -305 73 -110 0 -134 -4 -197 -27 -77 -27 -99 -28 -35 -1 122
53 288 68 407 38z m-52 -44 c21 -5 41 -12 44 -14 5 -6 -13 -69 -29 -100 -5
-10 -6 -27 -3 -38 4 -11 2 -19 -4 -19 -6 0 -11 -11 -11 -24 0 -13 -6 -26 -14
-29 -14 -6 -76 -127 -76 -148 0 -6 -14 -9 -31 -7 -27 3 -34 9 -51 53 -11 28
-24 52 -29 53 -5 2 -9 12 -9 22 0 11 -9 24 -20 30 -10 6 -17 17 -14 24 3 8 1
17 -5 21 -6 3 -11 19 -11 35 0 16 -5 32 -11 35 -5 4 -8 12 -6 18 2 7 -2 26 -9
44 -13 31 -13 31 24 41 47 13 215 14 265 3z m-397 -96 c8 -19 19 -35 24 -35 6
0 10 -9 10 -19 0 -11 4 -23 10 -26 15 -9 42 -73 36 -84 -4 -6 -2 -18 3 -28 16
-31 51 -125 51 -138 0 -7 -7 -18 -15 -25 -13 -11 -26 -9 -73 9 -31 12 -65 27
-75 32 -10 6 -27 7 -37 4 -10 -3 -21 -1 -25 5 -3 5 -15 10 -25 10 -11 0 -24 9
-30 20 -6 11 -17 20 -24 20 -8 0 -32 10 -55 23 l-40 23 26 40 c37 57 111 131
168 170 27 19 51 34 53 34 2 0 10 -16 18 -35z m637 -15 c56 -42 166 -168 167
-192 0 -9 -69 -48 -85 -48 -8 0 -20 -9 -27 -20 -7 -11 -20 -20 -30 -20 -9 0
-20 -5 -23 -10 -4 -6 -15 -8 -25 -5 -10 3 -27 2 -37 -4 -10 -5 -44 -19 -76
-32 -58 -22 -59 -22 -78 -3 -19 19 -19 20 2 74 12 30 26 65 32 77 5 12 7 28 4
35 -2 8 1 22 9 32 7 11 11 23 8 27 -2 4 5 13 16 19 11 6 20 19 20 29 0 10 6
24 14 30 8 7 17 23 20 36 4 14 10 25 14 25 4 0 37 -23 75 -50z m-1038 -62
c-74 -141 -90 -209 -90 -383 0 -129 3 -160 23 -225 84 -269 281 -466 547 -550
99 -31 273 -38 384 -16 137 28 274 93 366 175 l30 26 -30 -33 c-38 -43 -146
-115 -221 -148 -97 -43 -217 -66 -334 -66 -374 2 -696 260 -780 626 -19 80
-22 115 -17 213 5 130 22 205 68 303 28 61 87 160 94 160 2 0 -16 -37 -40 -82z
m154 -269 c35 -11 68 -18 74 -16 7 2 18 -3 26 -10 7 -8 20 -12 27 -9 8 3 14
-1 14 -10 0 -8 8 -17 18 -21 9 -3 47 -19 84 -36 58 -26 66 -33 65 -55 -2 -19
-12 -28 -52 -44 -28 -11 -54 -24 -59 -29 -6 -5 -18 -9 -28 -9 -10 0 -21 -6
-24 -14 -3 -8 -16 -17 -30 -20 -13 -4 -24 -10 -24 -15 0 -5 -9 -7 -21 -4 -11
3 -30 1 -42 -5 -12 -6 -31 -12 -42 -15 -11 -3 -27 -8 -37 -12 -13 -5 -18 3
-27 45 -14 65 -14 185 0 250 6 27 12 50 13 50 2 0 31 -9 65 -21z m1121 -79
c10 -73 7 -141 -12 -213 -7 -31 -13 -37 -26 -32 -9 4 -28 10 -42 13 -14 2 -30
9 -37 14 -6 5 -20 8 -30 7 -10 -2 -28 2 -39 9 -12 6 -24 9 -27 6 -3 -3 -10 4
-17 15 -6 12 -16 21 -21 21 -6 0 -40 14 -75 31 -53 25 -64 34 -64 55 0 16 8
27 23 33 64 25 137 63 137 71 0 6 9 10 19 10 11 0 23 5 26 10 3 6 19 10 34 10
15 0 31 3 35 7 4 5 26 12 49 18 52 13 53 10 67 -85z m-553 -46 c15 -24 15 -29
2 -53 -29 -51 -109 -33 -109 24 0 56 76 76 107 29z m-194 -185 c7 -12 2 -36
-21 -92 -17 -42 -28 -85 -25 -96 3 -12 1 -21 -6 -21 -6 0 -11 -9 -11 -20 0
-10 -6 -23 -14 -27 -7 -4 -26 -34 -41 -66 l-27 -57 -39 22 c-51 29 -137 112
-177 173 l-32 48 41 24 c23 13 47 23 55 23 7 0 18 9 24 20 6 11 19 20 30 20
10 0 22 5 25 10 4 6 15 8 25 5 10 -3 27 -2 37 4 43 22 119 50 132 48 8 -1 18
-9 24 -18z m355 5 c73 -31 120 -44 136 -38 9 3 16 1 16 -5 0 -6 9 -11 20 -11
10 0 24 -9 30 -20 6 -11 16 -20 23 -20 16 0 97 -43 97 -52 0 -22 -106 -141
-165 -185 -39 -29 -72 -53 -75 -53 -7 0 -50 83 -50 97 0 7 -9 17 -20 23 -11 6
-20 20 -20 30 0 11 -5 20 -11 20 -6 0 -8 9 -4 21 4 12 3 31 -3 43 -5 11 -19
45 -31 75 -20 51 -20 55 -5 73 20 22 16 22 62 2z m-178 -75 c0 -5 11 -34 24
-62 13 -29 26 -60 29 -69 4 -10 13 -18 22 -18 9 0 15 -9 15 -24 0 -14 4 -27
10 -31 5 -3 6 -13 3 -21 -3 -8 -1 -25 5 -37 6 -12 12 -31 15 -42 3 -11 8 -28
12 -37 5 -13 -2 -19 -36 -28 -70 -19 -282 -10 -305 12 -4 5 13 62 27 90 5 10
9 29 9 42 0 14 5 28 10 31 6 3 10 14 10 25 0 10 7 20 15 24 8 3 15 15 15 26 0
11 5 20 10 20 6 0 10 4 10 9 0 5 9 29 20 55 18 40 25 46 50 46 17 0 30 -5 30
-11z m-1650 -219 c10 -63 31 -153 46 -200 23 -73 25 -89 14 -115 -39 -97 -53
-150 -64 -235 l-12 -95 -22 80 c-33 125 -45 246 -39 390 6 119 26 267 44 319
7 20 7 20 11 -4 1 -14 11 -77 22 -140z m1673 -512 c16 -272 113 -475 265 -552
121 -61 351 -78 507 -37 197 52 387 177 549 361 l49 55 -34 -50 c-51 -74 -214
-233 -300 -292 -102 -70 -218 -127 -325 -160 -81 -24 -104 -27 -259 -27 l-171
-1 -76 38 c-49 24 -90 53 -114 80 -48 55 -92 149 -106 227 l-12 62 -14 -68
c-34 -171 -134 -286 -286 -329 -83 -24 -309 -16 -421 14 -104 29 -245 96 -342
163 -90 62 -219 187 -288 278 -45 60 -42 58 44 -32 116 -122 199 -185 326
-248 137 -69 231 -92 375 -92 132 -1 233 18 310 57 156 79 254 280 267 548 6
112 7 117 28 117 21 0 22 -5 28 -112z m-23 -1015 l-1 -258 -22 30 c-70 96
-195 199 -293 242 l-39 17 65 8 c123 17 231 87 267 173 10 25 19 45 21 45 1 0
2 -116 2 -257z"/>
<path d="M32559 8903 c-250 -240 -456 -531 -528 -749 -78 -237 -91 -559 -30
-790 11 -42 42 -126 70 -187 28 -62 62 -155 77 -207 24 -85 26 -112 26 -260 0
-145 -3 -178 -26 -271 -43 -172 -106 -316 -203 -466 l-53 -81 45 20 c176 78
346 201 528 383 315 314 475 624 492 956 13 247 -43 436 -198 671 -34 51 -78
127 -99 168 -137 272 -144 578 -20 838 21 45 37 82 35 82 -2 0 -54 -48 -116
-107z"/>
<path d="M12556 8438 c36 -117 151 -336 252 -478 88 -125 328 -365 452 -453
232 -164 447 -237 695 -237 195 0 343 39 526 141 104 57 224 106 326 131 114
29 322 31 427 5 92 -23 204 -69 269 -110 28 -18 58 -37 66 -42 21 -12 -42 75
-126 177 -211 253 -494 485 -683 557 -188 73 -360 105 -565 104 -168 -1 -239
-13 -398 -68 -133 -46 -238 -65 -363 -65 -171 0 -378 51 -544 135 -78 39 -228
137 -288 188 -51 43 -56 45 -46 15z"/>
<path d="M31424 7629 c-284 -194 -572 -486 -669 -679 -91 -181 -144 -393 -152
-611 -6 -172 1 -234 48 -399 93 -332 31 -658 -189 -985 -33 -50 -90 -122 -126
-162 l-66 -71 37 10 c71 19 241 89 337 138 257 132 503 340 675 570 171 230
259 525 232 775 -15 133 -42 226 -108 370 -102 223 -127 327 -127 515 0 196
43 344 141 493 64 96 65 97 60 97 -2 0 -43 -27 -93 -61z"/>
<path d="M15449 6935 c-124 -21 -186 -42 -359 -126 -214 -102 -281 -120 -480
-126 -120 -4 -175 -1 -245 12 -171 32 -373 108 -498 188 -31 20 -57 34 -57 31
0 -10 43 -88 84 -153 254 -394 699 -722 1098 -807 316 -67 608 4 895 218 243
182 436 247 695 235 134 -6 231 -28 331 -76 l59 -28 -69 69 c-159 162 -391
333 -589 435 -218 113 -354 144 -624 142 -91 -1 -199 -7 -241 -14z"/>
<path d="M30045 6497 c-319 -156 -629 -396 -756 -586 -99 -147 -187 -360 -226
-543 -21 -101 -23 -297 -5 -453 30 -255 -55 -541 -232 -775 -62 -83 -211 -234
-290 -296 l-40 -31 64 9 c503 68 1055 412 1280 798 115 197 166 425 142 634
-7 57 -28 158 -46 223 -55 195 -61 229 -60 383 0 119 4 160 22 229 43 158 121
300 225 408 33 35 58 63 56 63 -2 0 -62 -29 -134 -63z"/>
<path d="M17107 5890 c-208 -38 -393 -116 -543 -231 -105 -80 -255 -153 -379
-185 -248 -64 -599 -30 -850 81 -63 27 -62 25 11 -66 175 -217 460 -433 724
-549 232 -102 431 -145 635 -137 296 13 480 97 725 332 207 198 355 289 546
337 148 36 359 29 499 -17 32 -11 -14 25 -140 110 -195 130 -428 242 -640 307
-94 29 -111 31 -290 34 -155 3 -210 0 -298 -16z"/>
<path d="M28525 5596 c-171 -56 -325 -122 -460 -197 -61 -33 -111 -62 -113
-64 -2 -1 20 -33 47 -69 95 -125 168 -308 216 -538 27 -132 54 -330 56 -406
l1 -47 9 40 c12 62 10 200 -6 310 -19 129 -19 280 0 388 40 231 170 449 346
581 34 25 55 46 47 45 -7 0 -71 -19 -143 -43z"/>
<path d="M18825 5091 c-132 -34 -217 -66 -327 -121 -117 -59 -159 -90 -287
-213 -225 -216 -422 -309 -719 -339 -158 -16 -374 4 -527 48 -33 10 71 -91
177 -172 236 -178 507 -300 808 -365 86 -19 138 -23 285 -23 200 -1 282 12
411 65 l71 30 6 242 c11 395 29 479 170 780 26 53 45 97 44 97 -1 -1 -51 -14
-112 -29z"/>
</g>
</svg>
